<mxfile host="app.diagrams.net" modified="2024-04-13T15:13:55.112Z" agent="Mozilla/5.0 (Macintosh; Intel Mac OS X 10_15_7) AppleWebKit/537.36 (KHTML, like Gecko) Chrome/120.0.0.0 YaBrowser/24.1.0.0 Safari/537.36" version="24.0.2" etag="A2O5L4yLhlPIxs23ns4R" type="github">
  <diagram name="Страница — 1" id="6T_lk2WbhpWdQymKg2oo">
    <mxGraphModel>
      <root>
        <mxCell id="0" />
        <mxCell id="1" parent="0" />
      </root>
    </mxGraphModel>
  </diagram>
</mxfile>
